<svg t="1733456842975" class="icon" viewBox="0 0 1024 1024" version="1.1" xmlns="http://www.w3.org/2000/svg" p-id="109568" width="200" height="200"><path d="M512 972.8c-36.60288 0-67.71712-12.8-93.3376-38.4-25.6256-25.6-38.43584-56.68608-38.43584-93.25824 0-28.52352 8.23552-54.12352 24.70912-76.8 16.47104-22.67392 37.5168-38.4 63.13984-47.17568v-80.09216a164.28288 164.28288 0 0 1-23.06048-10.42176 87.296 87.296 0 0 1-19.7632-14.81216l-69.184 40.59392c0.73216 3.65824 1.28 7.49824 1.64864 11.52 0.36608 4.02432 0.54784 8.22784 0.54784 12.61824 0 36.5696-12.81024 67.65568-38.43328 93.25568-25.62304 25.6-56.73472 38.4-93.3376 38.4-36.60544 0-67.71712-12.8-93.3376-38.4-25.6256-25.6-38.43584-56.68608-38.43584-93.25568 0-36.57216 12.81024-67.65824 38.43328-93.25824 25.62304-25.6 56.73472-38.4 93.3376-38.4 16.83968 0 32.57856 2.74432 47.2192 8.22784a127.56736 127.56736 0 0 1 39.53408 23.5904l68.08064-39.49824c-0.73216-3.65568-1.28-7.68-1.64608-12.06784a158.33088 158.33088 0 0 1-0.5504-13.16608c0-4.38784 0.18432-8.59392 0.5504-12.61824 0.36608-4.02176 0.91392-7.86176 1.64608-11.52l-68.08064-40.59392a127.56736 127.56736 0 0 1-39.53408 23.5904c-14.64064 5.48352-30.37952 8.22784-47.21664 8.22784-36.60544 0-67.71712-12.8-93.3376-38.4C107.52768 415.08608 94.72 384 94.72 347.42784c0-36.5696 12.81024-67.65568 38.43328-93.25568 25.62304-25.6 56.73472-38.4 93.3376-38.4 36.60544 0 67.71712 12.8 93.34016 38.4 25.62304 25.6 38.43328 56.68608 38.43328 93.25568 0 4.3904-0.18176 8.77824-0.54784 13.16608a107.04384 107.04384 0 0 1-1.64864 12.06784L425.24928 412.16a75.61728 75.61728 0 0 1 19.76576-14.26176 218.52672 218.52672 0 0 1 23.06048-9.87648v-80.0896c-25.62304-8.77824-46.6688-24.68608-63.13984-47.72608-16.4736-23.04-24.70912-48.82432-24.70912-77.34784 0-36.57216 12.8128-67.65824 38.43328-93.25824C444.288 64 475.39712 51.2 512 51.2c36.60288 0 67.71712 12.8 93.3376 38.4 25.6256 25.6 38.43584 56.68608 38.43584 93.25824 0 28.52352-8.23552 54.30784-24.70912 77.34784-16.47104 23.04-37.5168 38.94784-63.13984 47.72608v80.0896c8.05376 2.92608 15.55712 6.4 22.51008 10.42432a93.00736 93.00736 0 0 1 19.21792 14.81216l70.27968-41.69216a109.04064 109.04064 0 0 1-1.64864-11.52 139.33568 139.33568 0 0 1-0.54784-12.61824c0-36.5696 12.81024-67.65568 38.43328-93.25568 25.62304-25.6 56.73472-38.4 93.3376-38.4 36.60544 0 67.71712 12.8 93.3376 38.4 25.6256 25.6 38.43584 56.68608 38.43584 93.25568 0 36.57216-12.81024 67.65824-38.43328 93.25824-25.62304 25.6-56.73472 38.4-93.3376 38.4-16.83968 0-32.3968-2.74432-46.6688-8.22784-14.27712-5.48608-27.27168-13.3504-38.98624-23.5904L640.47872 488.96c0.73216 3.65824 1.28 7.49824 1.64608 11.52 0.36608 4.02176 0.5504 7.86176 0.5504 11.52 0 3.65824-0.18432 7.68-0.5504 12.06784a107.04128 107.04128 0 0 1-1.64608 12.0704l71.37536 40.59392c11.71456-10.24 24.70912-18.10432 38.98368-23.5904 14.27456-5.48352 29.83168-8.22784 46.6688-8.22784 36.60544 0 67.71712 12.8 93.3376 38.4C916.47232 608.91392 929.28 640 929.28 676.57216c0 36.5696-12.81024 67.65568-38.43328 93.25568-25.62304 25.6-56.73472 38.4-93.3376 38.4-36.60544 0-67.71712-12.8-93.34016-38.4-25.62304-25.6-38.43328-56.68608-38.43328-93.25568 0-4.3904 0.18176-8.59392 0.54784-12.61824 0.36608-4.02176 0.91648-7.86176 1.64864-11.52L597.65248 611.84c-5.85728 5.85216-12.2624 10.60608-19.21792 14.26176-6.95296 3.65824-14.45632 6.9504-22.51008 9.87648v81.18784c25.62304 8.77568 46.6688 24.50176 63.13984 47.17568 16.4736 22.67648 24.70912 48.27648 24.70912 76.8 0 36.57216-12.8128 67.65824-38.43328 93.25824-25.6256 25.6-56.73728 38.4-93.34016 38.4z m0-87.77216c12.44416 0 22.87616-4.20608 31.296-12.61568 8.41984-8.41216 12.62848-18.83392 12.62848-31.2704 0-12.43392-4.20864-22.85568-12.62848-31.26784-8.41984-8.41216-18.85184-12.61568-31.296-12.61568s-22.87616 4.20352-31.296 12.61568c-8.41984 8.41216-12.62848 18.83392-12.62848 31.26784 0 12.43648 4.20864 22.85824 12.62848 31.2704 8.41984 8.4096 18.85184 12.61568 31.296 12.61568zM226.49344 720.4608c12.44416 0 22.87616-4.20608 31.296-12.61824 8.41728-8.41216 12.62848-18.83392 12.62848-31.26784s-4.2112-22.85824-12.62848-31.2704c-8.41984-8.4096-18.85184-12.61568-31.296-12.61568-12.44672 0-22.87872 4.20608-31.296 12.61568-8.41984 8.41216-12.62848 18.83648-12.62848 31.2704s4.20864 22.85568 12.62848 31.26784c8.41728 8.41216 18.84928 12.61824 31.296 12.61824z m571.01312 0c12.44672 0 22.87872-4.20608 31.296-12.61824 8.41984-8.41216 12.62848-18.83392 12.62848-31.26784s-4.20864-22.85824-12.62848-31.2704c-8.41728-8.4096-18.84928-12.61568-31.296-12.61568-12.44416 0-22.87616 4.20608-31.296 12.61568-8.41728 8.41216-12.62848 18.83648-12.62848 31.2704s4.2112 22.85568 12.62848 31.26784c8.41984 8.41216 18.85184 12.61824 31.296 12.61824zM226.49344 391.31392c12.44416 0 22.87616-4.20608 31.296-12.61568 8.41728-8.41216 12.62848-18.83648 12.62848-31.2704s-4.2112-22.85568-12.62848-31.26784c-8.41984-8.41216-18.85184-12.61824-31.296-12.61824-12.44672 0-22.87872 4.20608-31.296 12.61824-8.41984 8.41216-12.62848 18.83392-12.62848 31.26784s4.20864 22.85824 12.62848 31.2704c8.41728 8.4096 18.84928 12.61568 31.296 12.61568z m571.01312 0c12.44672 0 22.87872-4.20608 31.296-12.61568 8.41984-8.41216 12.62848-18.83648 12.62848-31.2704s-4.20864-22.85568-12.62848-31.26784c-8.41728-8.41216-18.84928-12.61824-31.296-12.61824-12.44416 0-22.87616 4.20608-31.296 12.61824-8.41728 8.41216-12.62848 18.83392-12.62848 31.26784s4.2112 22.85824 12.62848 31.2704c8.41984 8.4096 18.85184 12.61568 31.296 12.61568zM512 226.74176c12.44416 0 22.87616-4.20352 31.296-12.61568 8.41984-8.41216 12.62848-18.83392 12.62848-31.26784 0-12.43648-4.20864-22.85824-12.62848-31.2704-8.41984-8.4096-18.85184-12.61568-31.296-12.61568s-22.87616 4.20608-31.296 12.61568c-8.41984 8.41216-12.62848 18.83392-12.62848 31.2704 0 12.43392 4.20864 22.85568 12.62848 31.26784 8.41984 8.41216 18.85184 12.61568 31.296 12.61568z" fill="#00B85C" p-id="109569"></path><path d="M511.93088 555.52c12.32896 0 22.66624-4.1728 31.00672-12.51072 8.34304-8.34304 12.51328-18.67776 12.51328-31.00928 0-12.33152-4.1728-22.66624-12.51328-31.00928-8.34048-8.34048-18.67776-12.51072-31.00672-12.51072-12.33152 0-22.66624 4.1728-31.00928 12.51072-8.34048 8.34304-12.51072 18.67776-12.51072 31.00928 0 12.33152 4.17024 22.66624 12.51072 31.00928 8.34304 8.34048 18.67776 12.51072 31.00928 12.51072z" fill="#BDE6D2" p-id="109570"></path></svg>
